# xmcd
#
# Track frame offsets: 
#        150
#        17450
#        35569
#        53054
#        67137
#        85020
#        103060
#        124413
#        141476
#        154307
#        169237
#        185059
#
# Disc length: 2665 seconds
#
# Revision: 1
# Processed by: cddbd v1.5.2PL0 Copyright (c) Steve Scherf et al.
# Submitted via: ExactAudioCopy v0.99pb4
#
DISCID=ae0a670c
DTITLE=Emily Maguire - Keep Walking
DYEAR=2007
DGENRE=
TTITLE0=01 Something
TTITLE1=02 Keep Walking
TTITLE2=03 Passing By
TTITLE3=04 Lately
TTITLE4=05 Standing
TTITLE5=06 TV To Take It Away
TTITLE6=07 All That You Wanted
TTITLE7=08 Back Home
TTITLE8=09 One Good Thing
TTITLE9=10 Wanted
TTITLE10=11 Someday
TTITLE11=12 She Knows
EXTD=
EXTT0=
EXTT1=
EXTT2=
EXTT3=
EXTT4=
EXTT5=
EXTT6=
EXTT7=
EXTT8=
EXTT9=
EXTT10=
EXTT11=
PLAYORDER=
